<?xml version="1.0" encoding="UTF-8" standalone="no"?>
<!-- Created with Inkscape (http://www.inkscape.org/) -->

<svg
   xmlns:dc="http://purl.org/dc/elements/1.1/"
   xmlns:cc="http://creativecommons.org/ns#"
   xmlns:rdf="http://www.w3.org/1999/02/22-rdf-syntax-ns#"
   xmlns:svg="http://www.w3.org/2000/svg"
   xmlns="http://www.w3.org/2000/svg"
   xmlns:sodipodi="http://sodipodi.sourceforge.net/DTD/sodipodi-0.dtd"
   xmlns:inkscape="http://www.inkscape.org/namespaces/inkscape"
   width="744.09448"
   height="1052.3622"
   id="svg2"
   version="1.1"
   inkscape:version="0.48.4 r9939"
   sodipodi:docname="Deckblatt.svg">
  <defs
     id="defs4" />
  <sodipodi:namedview
     id="base"
     pagecolor="#ffffff"
     bordercolor="#666666"
     borderopacity="1.0"
     inkscape:pageopacity="0.0"
     inkscape:pageshadow="2"
     inkscape:zoom="0.7"
     inkscape:cx="430.4531"
     inkscape:cy="670.57081"
     inkscape:document-units="mm"
     inkscape:current-layer="layer3"
     showgrid="false"
     inkscape:window-width="1680"
     inkscape:window-height="1000"
     inkscape:window-x="0"
     inkscape:window-y="0"
     inkscape:window-maximized="1"
     showguides="false"
     inkscape:guide-bbox="true"
     units="mm"
     inkscape:snap-grids="false"
     inkscape:snap-bbox="true"
     inkscape:snap-bbox-midpoints="true"
     inkscape:snap-global="true"
     inkscape:snap-to-guides="true">
    <sodipodi:guide
       orientation="0,1"
       position="-35.433071,350.7874"
       id="guide3069" />
    <sodipodi:guide
       orientation="0,1"
       position="-35.433071,701.5748"
       id="guide3071" />
    <inkscape:grid
       units="mm"
       empspacing="10"
       visible="true"
       enabled="true"
       snapvisiblegridlinesonly="true"
       type="xygrid"
       id="grid3073" />
    <sodipodi:guide
       orientation="0,1"
       position="-35.433071,526.1811"
       id="guide3079" />
    <sodipodi:guide
       orientation="0,1"
       position="-35.433071,175.3937"
       id="guide3081" />
    <sodipodi:guide
       orientation="0,1"
       position="-35.433071,876.9685"
       id="guide3083" />
    <sodipodi:guide
       orientation="0,1"
       position="-35.433071,789.27165"
       id="guide3085" />
    <sodipodi:guide
       orientation="0,1"
       position="-35.433071,613.87795"
       id="guide3087" />
    <sodipodi:guide
       orientation="0,1"
       position="-35.433071,87.69685"
       id="guide3089" />
  </sodipodi:namedview>
  <metadata
     id="metadata7">
    <rdf:RDF>
      <cc:Work
         rdf:about="">
        <dc:format>image/svg+xml</dc:format>
        <dc:type
           rdf:resource="http://purl.org/dc/dcmitype/StillImage" />
        <dc:title />
      </cc:Work>
    </rdf:RDF>
  </metadata>
  <g
     inkscape:groupmode="layer"
     id="layer3"
     inkscape:label="Deckblatt"
     transform="translate(0,-2.5390623e-6)"
     style="display:inline">
    <g
       id="g3055"
       transform="translate(93.781433,248.90889)">
      <text
         sodipodi:linespacing="125%"
         id="text3047"
         y="434.14883"
         x="279.31418"
         style="font-size:16px;font-style:normal;font-variant:normal;font-weight:normal;font-stretch:normal;text-align:center;line-height:125%;letter-spacing:2.13999987px;word-spacing:0px;text-anchor:middle;fill:#000000;fill-opacity:1;stroke:none;font-family:EB Garamond 12 All SC;-inkscape-font-specification:EB Garamond 12 All SC"
         xml:space="preserve"><tspan
           y="434.14883"
           x="280.38419"
           id="tspan3049"
           sodipodi:role="line">jan dismas</tspan></text>
      <text
         sodipodi:linespacing="125%"
         id="text3051"
         y="452.66589"
         x="277.94019"
         style="font-size:12px;font-style:normal;font-variant:normal;font-weight:normal;font-stretch:normal;text-align:center;line-height:125%;letter-spacing:5.19000053px;word-spacing:0px;text-anchor:middle;fill:#d40000;fill-opacity:1;stroke:none;font-family:EB Garamond;-inkscape-font-specification:EB Garamond"
         xml:space="preserve"><tspan
           style="font-size:20px;letter-spacing:5.19000053px;fill:#d40000"
           y="452.66589"
           x="280.53519"
           id="tspan3053"
           sodipodi:role="line">ZELENKA</tspan></text>
    </g>
    <text
       xml:space="preserve"
       style="font-size:12px;font-style:normal;font-variant:normal;font-weight:normal;font-stretch:normal;text-align:center;line-height:110.00000238%;letter-spacing:0px;word-spacing:0px;text-anchor:middle;fill:#000000;fill-opacity:1;stroke:none;font-family:EB Garamond;-inkscape-font-specification:EB Garamond"
       x="372.3208"
       y="412.09424"
       id="text3061"
       sodipodi:linespacing="110%"><tspan
         sodipodi:role="line"
         x="372.3208"
         y="412.09424"
         id="tspan3067"
         style="font-size:14px;font-style:normal;line-height:110.00000238%;-inkscape-font-specification:EB Garamond">Litaniae Lauretanae factae</tspan><tspan
         sodipodi:role="line"
         x="372.3208"
         y="427.49423"
         style="font-size:14px;font-style:normal;line-height:110.00000238%;-inkscape-font-specification:EB Garamond"
         id="tspan3852">sub titulo:</tspan><tspan
         sodipodi:role="line"
         x="372.3208"
         y="442.89423"
         style="font-size:14px;font-style:normal;line-height:110.00000238%;-inkscape-font-specification:EB Garamond"
         id="tspan3854">Consolatrix afflictorum.</tspan><tspan
         sodipodi:role="line"
         x="372.3208"
         y="458.29425"
         style="font-size:14px;font-style:normal;line-height:110.00000238%;-inkscape-font-specification:EB Garamond"
         id="tspan3075" /><tspan
         sodipodi:role="line"
         x="372.3208"
         y="473.69424"
         style="font-size:14px;font-style:normal;line-height:110.00000238%;-inkscape-font-specification:EB Garamond"
         id="tspan3077">ZWV Z 151</tspan></text>
    <text
       xml:space="preserve"
       style="font-size:14px;font-style:normal;font-variant:normal;font-weight:normal;font-stretch:normal;text-align:center;line-height:125%;letter-spacing:1.84000015px;word-spacing:0px;text-anchor:middle;fill:#000000;fill-opacity:1;stroke:none;font-family:EB Garamond 12 All SC;-inkscape-font-specification:EB Garamond 12 All SC"
       x="372.06738"
       y="967.76636"
       id="text3099"
       sodipodi:linespacing="125%"><tspan
         sodipodi:role="line"
         x="372.9874"
         y="967.76636"
         id="tspan3023">full score</tspan></text>
    <text
       sodipodi:linespacing="110%"
       id="text3021"
       y="876.96851"
       x="371.86884"
       style="font-size:12px;font-style:normal;font-variant:normal;font-weight:normal;font-stretch:normal;text-align:center;line-height:110.00000238%;letter-spacing:0px;word-spacing:0px;text-anchor:middle;fill:#000000;fill-opacity:1;stroke:none;font-family:EB Garamond;-inkscape-font-specification:EB Garamond"
       xml:space="preserve"><tspan
         id="tspan3032"
         style="font-size:14px;font-style:normal;line-height:110.00000238%;-inkscape-font-specification:EB Garamond"
         y="876.96851"
         x="371.86884"
         sodipodi:role="line">2 Ob / 2 Vl / Va / SATB (soli) / SATB (coro) / BOrg</tspan></text>
    <g
       style="font-size:72px;font-style:normal;font-variant:normal;font-weight:normal;font-stretch:normal;text-align:center;line-height:100%;letter-spacing:0px;word-spacing:0px;text-anchor:middle;fill:none;stroke:#808080;stroke-width:0.625;stroke-miterlimit:4;stroke-dasharray:none;font-family:EB Garamond;-inkscape-font-specification:EB Garamond"
       id="text3027"
       transform="translate(377.37016,152.65481)">
      <path
         d="m -215.39585,51.971726 c -14.18399,0 -26.064,9.792015 -26.064,23.976 0,12.815988 12.52801,20.952 24.696,20.952 4.03199,0 9.072,-0.792001 11.952,-1.8 1.79999,-0.647999 2.16,-1.152002 3.312,-3.528 0.648,-1.367998 2.88,-6.264 2.88,-6.84 0,-1.295998 -0.576,-2.016 -1.152,-2.016 -0.576,0 -1.008,0.144001 -1.296,0.576 -3.816,5.399995 -5.47201,10.44 -12.744,10.44 -11.44799,0 -19.584,-9.792011 -19.584,-20.808 0,-9.93599 7.27201,-17.712 16.56,-17.712 5.11199,0 12.024,1.872004 13.032,5.04 0.936,3.023997 1.8,4.536 2.88,4.536 0.792,0 1.296,-0.792001 1.296,-2.016 0,-3.959996 -0.50401,-7.776 -2.16,-7.92 -1.656,-0.143999 -8.13601,-2.88 -13.608,-2.88"
         style="fill:none;stroke:#808080;stroke-width:0.625;stroke-miterlimit:4;stroke-dasharray:none"
         id="path3035"
         inkscape:connector-curvature="0" />
      <path
         d="m -184.31098,71.987726 c 0,-7.919992 5.76001,-15.984 13.68,-15.984 9.35999,0 14.328,10.22401 14.328,19.584 0,8.567992 -3.74401,17.712 -12.312,17.712 -10.00799,0 -15.696,-11.30401 -15.696,-21.312 m 16.416,-19.296 c -14.25598,0 -24.48,8.208014 -24.48,21.816 0,13.103987 9.86401,22.104 22.752,22.104 12.31199,0 21.384,-10.872012 21.384,-23.184 0,-10.511989 -9.86401,-20.736 -19.656,-20.736"
         style="fill:none;stroke:#808080;stroke-width:0.625;stroke-miterlimit:4;stroke-dasharray:none"
         id="path3037"
         inkscape:connector-curvature="0" />
      <path
         d="m -132.62285,86.459726 0,-18.36 c 0,-1.583998 0.576,-1.511999 1.368,-0.72 l 22.392,24.84 c 2.73599,3.023997 5.328,4.32 6.12,4.32 0.72,0 1.44,-0.144 1.44,-0.864 0,-1.943998 -0.216,-2.520003 -0.216,-5.904 l 0,-28.728 c 0,-4.175995 1.872,-4.176001 5.975996,-5.328 0.647999,-0.215999 1.08,-0.576 1.08,-1.224 0,-0.863999 -1.440001,-1.296 -2.52,-1.296 -2.447997,0 -3.960006,0.36 -6.479996,0.36 -2.592,0 -3.74401,-0.36 -6.552,-0.36 -1.08,0 -2.52,0.432001 -2.52,1.296 0,0.648 0.504,1.008001 1.152,1.224 4.10399,1.151999 5.904,1.152005 5.904,5.328 l 0,22.032 c 0,1.439999 -1.08,1.079999 -2.016,0 l -23.976,-26.928 c -0.72,-0.791999 -2.23201,-2.592 -3.816,-2.592 l -7.56,0 c -1.008,0 -1.512,0.216001 -1.512,0.792 0,1.295999 2.736,1.800002 4.32,3.456 l 2.664,2.88 c 0.792,0.936 1.008,3.528004 1.008,6.984 l 0,18.792 c 0,2.735998 -0.93601,4.968002 -3.384,6.048 -1.584,0.72 -3.96,1.080002 -3.96,2.16 0,0.72 1.584,1.152001 2.376,1.224 0.504,0 3.24,-0.432 6.624,-0.432 3.45599,0 6.624,0.432 7.128,0.432 0.792,-0.072 2.304,-0.504 2.304,-1.224 0,-1.079998 -2.37601,-1.44 -3.96,-2.16 -2.448,-1.079998 -3.384,-3.312002 -3.384,-6.048"
         style="fill:none;stroke:#808080;stroke-width:0.625;stroke-miterlimit:4;stroke-dasharray:none"
         id="path3039"
         inkscape:connector-curvature="0" />
      <path
         d="m -78.583479,52.475726 c -7.055993,0 -12.816,5.328007 -12.816,12.096 0,3.527997 1.656003,6.120003 4.248,8.28 l 9.72,8.208 c 1.799998,1.511999 2.88,3.312003 2.88,5.76 0,3.599997 -2.664004,6.912 -6.264,6.912 -4.175996,0 -6.984001,-2.088002 -7.776,-4.68 -0.647999,-2.159997 -1.296001,-3.384 -2.448,-3.384 -0.719999,0 -1.224,0.864001 -1.368,1.728 -0.216,0.936 -0.504,3.960001 -0.504,4.968 0,1.007999 0.648003,1.368002 3.312,2.592 1.727998,0.792 5.040003,1.584 7.56,1.584 7.199993,0 14.472,-5.256007 14.472,-12.312 0,-3.023997 -1.224002,-5.472001 -3.456,-7.344 l -10.152,-8.568 c -2.159998,-1.799998 -3.672,-3.672002 -3.672,-6.048 0,-3.167996 2.808003,-5.688 5.904,-5.688 2.087998,0 4.968001,0.864002 5.688,2.592 1.079999,2.591998 2.016001,3.312 2.88,3.312 1.079999,0 1.44,-1.008 1.44,-1.944 0,-1.367998 -0.072,-2.952001 -0.288,-4.104 -0.144,-0.791999 -0.792001,-1.368 -2.16,-2.088 -1.583998,-0.791999 -4.896002,-1.872 -7.2,-1.872"
         style="fill:none;stroke:#808080;stroke-width:0.625;stroke-miterlimit:4;stroke-dasharray:none"
         id="path3041"
         inkscape:connector-curvature="0" />
      <path
         d="m -54.232854,71.987726 c 0,-7.919992 5.760008,-15.984 13.68,-15.984 9.359991,0 14.328,10.22401 14.328,19.584 0,8.567992 -3.744008,17.712 -12.312,17.712 -10.00799,0 -15.696,-11.30401 -15.696,-21.312 m 16.416,-19.296 c -14.255986,0 -24.48,8.208014 -24.48,21.816 0,13.103987 9.864013,22.104 22.752,22.104 12.311988,0 21.384,-10.872012 21.384,-23.184 0,-10.511989 -9.86401,-20.736 -19.656,-20.736"
         style="fill:none;stroke:#808080;stroke-width:0.625;stroke-miterlimit:4;stroke-dasharray:none"
         id="path3043"
         inkscape:connector-curvature="0" />
      <path
         d="m 1.0552711,89.627726 0,-28.584 c 0,-4.103995 1.9440041,-4.176001 6.048,-5.328 0.6479993,-0.215999 1.08,-0.576 1.08,-1.224 0,-0.863999 -1.4400011,-1.296 -2.52,-1.296 -2.4479976,0 -5.40000254,0.36 -7.92,0.36 -2.5919974,0 -5.1840028,-0.36 -7.9920001,-0.36 -1.583998,0 -2.592,0.432001 -2.592,1.296 0,0.648 0.504001,1.008001 1.152,1.224 4.103996,1.151999 5.9040001,1.224005 5.9040001,5.328 l 0,26.28 c 0,2.663998 -0.9360025,4.104002 -3.384,5.184 -1.5839981,0.72 -3.9600001,1.080002 -3.9600001,2.16 0,0.72 1.584001,1.152001 2.376,1.224 0.504,0 4.7520035,-0.36 8.1360001,-0.36 7.6319923,0 21.2400029,0.36 23.9039999,0.36 1.223999,0 1.440001,-0.288001 2.016,-1.368 0.576,-0.935999 2.376,-6.768002 2.376,-8.712 0,-2.015998 -0.576001,-3.384 -1.296,-3.384 -0.647999,0 -1.584,0.576001 -1.944,1.368 -2.087998,4.391996 -3.024005,8.712 -8.568,8.712 l -9.6479999,0 c -2.2319978,0 -3.168,-0.792002 -3.168,-2.88"
         style="fill:none;stroke:#808080;stroke-width:0.625;stroke-miterlimit:4;stroke-dasharray:none"
         id="path3045"
         inkscape:connector-curvature="0" />
      <path
         d="m 45.176646,76.163726 5.04,-14.328 c 0.288,-0.719999 0.576,-0.935999 0.792,-0.216 l 4.392,13.464 c 0.719999,2.303998 0.647999,2.592 -0.792,2.592 l -8.784,0 c -1.295999,0 -1.079999,-0.360001 -0.648,-1.512 m 20.52,19.296 c 2.375998,0 4.968002,0.432 6.624,0.432 1.367999,0 2.088,-0.36 2.088,-1.152 0,-0.719999 -0.648002,-1.44 -2.88,-2.232 -3.527996,-1.295998 -4.320002,-3.240005 -6.408,-9.072 l -9.504,-26.856 c -1.007999,-2.807997 -1.440001,-5.184 -2.664,-5.184 -0.431999,0 -1.728001,2.016001 -3.096,2.16 -0.791999,0.072 -0.792001,1.008004 -2.016,4.104 l -11.016,30.456 c -1.079999,2.951997 -1.008002,3.312002 -3.384,4.392 -1.583998,0.72 -3.96,1.080002 -3.96,2.16 0,0.792 1.008001,1.224 2.376,1.224 1.079999,0 2.736002,-0.432 4.536,-0.432 1.367999,0 4.536001,0.432 5.904,0.432 1.799998,0 2.52,-0.432 2.52,-1.224 0,-0.719999 -0.792002,-1.512 -2.664,-2.016 -2.087998,-0.575999 -2.015999,-1.728001 -1.584,-3.024 l 2.736,-7.848 c 0.288,-0.719999 0.792,-0.792 1.152,-0.792 l 12.024,0 c 0.576,0 0.936,0.216001 1.152,0.864 l 2.088,6.84 c 0.36,1.223999 0.503997,2.592002 -2.088,3.816 -1.583998,0.72 -3.888,1.080002 -3.888,2.16 0,0.792 1.368001,1.224 2.304,1.224 2.159998,0 4.896005,-0.432 9.648,-0.432"
         style="fill:none;stroke:#808080;stroke-width:0.625;stroke-miterlimit:4;stroke-dasharray:none"
         id="path3047"
         inkscape:connector-curvature="0" />
      <path
         d="m 93.880146,59.387726 0,27.936 c 0,2.663998 -0.936002,4.104002 -3.384,5.184 -1.583998,0.72 -3.96,1.080002 -3.96,2.16 0,0.72 1.584001,1.152001 2.376,1.224 0.504,0 4.752003,-0.432 8.136,-0.432 3.455994,0 8.208004,0.432 8.712004,0.432 0.792,-0.072 2.304,-0.504 2.304,-1.224 0,-1.079998 -2.37601,-1.44 -3.96,-2.16 -2.448,-1.079998 -3.384,-2.520002 -3.384,-5.184 l 0,-27.936 c 0,-0.719999 0.144,-2.232 0.864,-2.232 l 11.16,0 c 1.008,0 1.944,0.936002 2.592,2.016 0.792,1.367999 1.872,3.24 2.592,3.24 0.864,0 1.008,-0.576001 1.008,-1.656 0,-0.791999 -0.144,-3.240001 -0.144,-4.968 0,-1.583998 0.288,-2.448 0.288,-3.096 0,-0.575999 -0.432,-1.296 -1.296,-1.296 -0.864,0 -1.224,0.576001 -2.088,1.08 -1.296,0.72 -2.44801,1.224 -5.04,1.224 l -25.128004,0 c -3.959996,0 -5.760001,-2.16 -6.84,-2.16 -0.719999,0 -1.224,0.864001 -1.224,1.8 0,0.72 0.144,2.088002 0.144,3.24 0,2.303998 -0.36,2.880002 -0.36,4.536 0,0.648 0.360001,1.656 1.296,1.656 1.007999,0 1.512001,-2.016001 2.304,-3.456 0.719999,-1.295998 1.224002,-2.16 3.096,-2.16 l 8.784,0 c 0.719999,0 1.152,0.792002 1.152,2.232"
         style="fill:none;stroke:#808080;stroke-width:0.625;stroke-miterlimit:4;stroke-dasharray:none"
         id="path3049"
         inkscape:connector-curvature="0" />
      <path
         d="m 147.50552,78.035726 c -0.936,-1.367998 -1.8,-2.952 -1.8,-3.6 0,-0.647999 0.288,-0.576 1.224,-1.296 3.384,-2.447997 5.688,-5.472004 5.688,-10.08 0,-7.271992 -8.06401,-10.296 -15.336,-10.296 -6.40799,0 -9.36001,0.216001 -15.696,0.72 -1.512,0.072 -2.52,0.432001 -2.52,1.296 0,0.648 0.504,1.008001 1.152,1.224 4.104,1.151999 5.904,1.224005 5.904,5.328 l 0,25.992 c 0,2.663998 -0.936,4.104002 -3.384,5.184 -1.584,0.72 -3.96,1.080002 -3.96,2.16 0,0.72 1.584,1.152001 2.376,1.224 0.504,0 4.824,-0.432 7.92,-0.432 3.456,0 8.208,0.432 8.712,0.432 0.792,-0.072 2.304,-0.504 2.304,-1.224 0,-1.079998 -2.376,-1.44 -3.96,-2.16 -2.448,-1.079998 -3.384,-2.520002 -3.384,-5.184 l 0,-8.64 c 0,-1.439998 0.504,-1.944 2.016,-1.944 3.024,0 5.112,0.936002 5.976,2.376 3.744,6.263994 7.12801,10.512005 11.376,14.976 2.016,2.159998 5.616,3.384 9.144,3.384 2.52,0 5.04,-0.864001 5.04,-2.16 0,-0.575999 -0.432,-1.152 -1.224,-1.224 -1.584,-0.143999 -3.24,-0.504 -4.104,-1.152 -5.39999,-3.887996 -9.936,-9.648005 -13.464,-14.904 m -11.808,-3.888 c -2.088,0 -2.952,-0.576001 -2.952,-1.872 l 0,-13.896 c 0,-1.367998 1.584,-2.448 3.6,-2.448 4.824,0 9.072,3.384005 9.072,8.208 0,3.743997 -1.584,6.192003 -4.392,8.568 -0.648,0.72 -3.168,1.44 -5.328,1.44"
         style="fill:none;stroke:#808080;stroke-width:0.625;stroke-miterlimit:4;stroke-dasharray:none"
         id="path3051"
         inkscape:connector-curvature="0" />
      <path
         d="m 184.32565,53.195726 c -2.448,0 -5.40001,0.36 -7.92,0.36 -2.592,0 -5.18401,-0.36 -7.992,-0.36 -1.08,0 -2.52,0.432001 -2.52,1.296 0,0.648 0.504,1.008001 1.152,1.224 4.10399,1.151999 5.904,1.224005 5.904,5.328 l 0,26.28 c 0,2.663998 -0.93601,4.104002 -3.384,5.184 -1.584,0.72 -3.96,1.080002 -3.96,2.16 0,0.72 1.584,1.152001 2.376,1.224 0.504,0 4.752,-0.432 8.136,-0.432 3.45599,0 8.208,0.432 8.712,0.432 0.792,-0.072 2.304,-0.504 2.304,-1.224 0,-1.079998 -2.37601,-1.44 -3.96,-2.16 -2.448,-1.079998 -3.384,-2.520002 -3.384,-5.184 l 0,-26.28 c 0,-4.103995 1.872,-4.176001 5.976,-5.328 0.648,-0.215999 1.08,-0.576 1.08,-1.224 0,-0.863999 -1.44001,-1.296 -2.52,-1.296"
         style="fill:none;stroke:#808080;stroke-width:0.625;stroke-miterlimit:4;stroke-dasharray:none"
         id="path3053"
         inkscape:connector-curvature="0" />
      <path
         d="m 207.0664,57.803726 c 0,-0.503999 0.288,-1.368 2.376,-2.088 0.648,-0.215999 1.08,-0.576 1.08,-1.224 0,-0.863999 -1.44001,-1.224 -2.52,-1.224 -2.448,0 -4.39201,0.288 -6.912,0.288 -2.592,0 -2.88001,-0.288 -5.688,-0.288 -1.08,0 -2.52,0.360001 -2.52,1.224 0,0.648 0.792,1.296001 1.44,1.512 4.75199,1.655999 7.488,6.624003 8.784,9.072 l 5.472,10.152 -8.352,12.6 c -1.872,2.447998 -3.81601,3.600002 -6.192,4.68 -1.584,0.72 -3.96,1.080002 -3.96,2.16 0,0.792 1.008,1.224 2.376,1.224 1.07999,0 2.736,-0.432 4.536,-0.432 1.36799,0 4.536,0.432 5.904,0.432 1.79999,0 2.52,-0.432 2.52,-1.224 0,-0.719999 -0.43201,-1.512 -2.304,-2.016 -1.368,-0.359999 -0.648,-2.376001 0.144,-3.528 l 6.984,-10.8 5.256,9.792 c 0.936,1.583999 1.87199,3.168002 -0.72,4.392 -1.584,0.72 -3.888,1.080002 -3.888,2.16 0,0.792 1.368,1.224 2.304,1.224 2.15999,0 4.896,-0.432 9.648,-0.432 2.37599,0 4.968,0.432 6.624,0.432 1.36799,0 2.088,-0.36 2.088,-1.152 0,-0.719999 -0.64801,-1.44 -2.88,-2.232 -3.528,-1.295998 -5.4,-3.528001 -6.408,-5.4 l -8.064,-14.904 6.768,-10.44 c 1.65599,-2.519997 3.744,-4.608001 8.064,-6.048 0.648,-0.215999 1.224,-0.576 1.224,-1.224 0,-0.863999 -1.44001,-1.224 -2.52,-1.224 -1.08,0 -3.52801,0.288 -4.608,0.288 -1.08,0 -4.10401,-0.288 -5.184,-0.288 -1.08,0 -2.52,0.360001 -2.52,1.224 0,0.648 0.576,1.080001 1.224,1.296 1.29599,0.432 2.16,1.584001 2.16,2.448 0,1.151999 -1.296,3.528002 -2.304,5.112 l -3.888,5.832 -4.896,-9.072 c -0.288,-0.503999 -0.648,-1.944 -0.648,-2.304"
         style="fill:none;stroke:#808080;stroke-width:0.625;stroke-miterlimit:4;stroke-dasharray:none"
         id="path3055"
         inkscape:connector-curvature="0" />
      <path
         d="m -227.21398,148.16373 5.04,-14.328 c 0.288,-0.72 0.576,-0.936 0.792,-0.216 l 4.392,13.464 c 0.72,2.30399 0.648,2.592 -0.792,2.592 l -8.784,0 c -1.296,0 -1.08,-0.36 -0.648,-1.512 m 20.52,19.296 c 2.376,0 4.968,0.432 6.624,0.432 1.368,0 2.088,-0.36 2.088,-1.152 0,-0.72 -0.648,-1.44 -2.88,-2.232 -3.528,-1.296 -4.32,-3.24001 -6.408,-9.072 l -9.504,-26.856 c -1.008,-2.808 -1.44,-5.184 -2.664,-5.184 -0.432,0 -1.728,2.016 -3.096,2.16 -0.792,0.072 -0.792,1.008 -2.016,4.104 l -11.016,30.456 c -1.08,2.95199 -1.008,3.312 -3.384,4.392 -1.584,0.72 -3.96,1.08 -3.96,2.16 0,0.792 1.008,1.224 2.376,1.224 1.08,0 2.736,-0.432 4.536,-0.432 1.368,0 4.536,0.432 5.904,0.432 1.8,0 2.52,-0.432 2.52,-1.224 0,-0.72 -0.792,-1.512 -2.664,-2.016 -2.088,-0.576 -2.016,-1.728 -1.584,-3.024 l 2.736,-7.848 c 0.288,-0.72 0.792,-0.792 1.152,-0.792 l 12.024,0 c 0.576,0 0.936,0.216 1.152,0.864 l 2.088,6.84 c 0.36,1.224 0.504,2.592 -2.088,3.816 -1.584,0.72 -3.888,1.08 -3.888,2.16 0,0.792 1.368,1.224 2.304,1.224 2.16,0 4.89601,-0.432 9.648,-0.432"
         style="fill:none;stroke:#808080;stroke-width:0.625;stroke-miterlimit:4;stroke-dasharray:none"
         id="path3057"
         inkscape:connector-curvature="0" />
      <path
         d="m -193.84648,167.89173 c 0.504,0 4.752,-0.432 8.136,-0.432 3.456,0 8.208,0.432 8.712,0.432 0.792,-0.072 2.304,-0.504 2.304,-1.224 0,-1.08 -2.376,-1.44 -3.96,-2.16 -2.448,-1.08 -3.384,-2.52001 -3.384,-5.256 l -0.072,-9.864 c -0.072,-1.296 0.36,-1.728 1.728,-1.728 l 6.984,0 c 1.512,0 2.016,0.72 2.52,1.512 0.432,0.72 1.368,2.736 2.304,2.736 0.72,0 0.936,-1.152 0.936,-1.872 0,-0.792 -0.072,-3.024 -0.072,-4.104 0,-1.08 0.288,-3.6 0.288,-4.176 0,-0.864 -0.144,-1.44 -0.792,-1.44 -0.792,0 -1.44,1.08 -2.232,1.8 -1.296,1.224 -2.088,2.016 -4.392,2.016 l -5.616,0 c -1.008,0 -1.656,-0.50401 -1.656,-2.232 l 0.072,-11.88 c 0,-0.936 0.288,-1.512 2.232,-1.512 l 7.992,0 c 3.456,0 5.256,1.152 5.832,2.376 0.648,1.44 1.728,2.736 2.592,2.736 0.864,0 1.152,-1.008 1.152,-1.872 0,-0.792 -0.36,-4.752 -0.648,-5.904 -0.144,-0.648 -0.72,-1.008 -1.872,-1.008 -1.296,0 -5.544,0.36 -8.568,0.36 l -20.088,0 c -1.512,0 -2.52,0.432 -2.52,1.296 0,0.648 0.504,1.008 1.152,1.224 4.104,1.152 5.904,1.224 5.904,5.328 l 0,26.28 c 0,2.66399 -0.936,4.104 -3.384,5.184 -1.584,0.72 -3.96,1.08 -3.96,2.16 0,0.72 1.584,1.152 2.376,1.224"
         style="fill:none;stroke:#808080;stroke-width:0.625;stroke-miterlimit:4;stroke-dasharray:none"
         id="path3059"
         inkscape:connector-curvature="0" />
      <path
         d="m -158.69023,167.89173 c 0.504,0 4.752,-0.432 8.136,-0.432 3.456,0 8.208,0.432 8.712,0.432 0.792,-0.072 2.304,-0.504 2.304,-1.224 0,-1.08 -2.376,-1.44 -3.96,-2.16 -2.448,-1.08 -3.384,-2.52001 -3.384,-5.256 l -0.072,-9.864 c -0.072,-1.296 0.36,-1.728 1.728,-1.728 l 6.984,0 c 1.512,0 2.016,0.72 2.52,1.512 0.432,0.72 1.368,2.736 2.304,2.736 0.72,0 0.936,-1.152 0.936,-1.872 0,-0.792 -0.072,-3.024 -0.072,-4.104 0,-1.08 0.288,-3.6 0.288,-4.176 0,-0.864 -0.144,-1.44 -0.792,-1.44 -0.792,0 -1.44,1.08 -2.232,1.8 -1.296,1.224 -2.088,2.016 -4.392,2.016 l -5.616,0 c -1.008,0 -1.656,-0.50401 -1.656,-2.232 l 0.072,-11.88 c 0,-0.936 0.288,-1.512 2.232,-1.512 l 7.992,0 c 3.456,0 5.256,1.152 5.832,2.376 0.648,1.44 1.728,2.736 2.592,2.736 0.864,0 1.152,-1.008 1.152,-1.872 0,-0.792 -0.36,-4.752 -0.648,-5.904 -0.144,-0.648 -0.72,-1.008 -1.872,-1.008 -1.296,0 -5.544,0.36 -8.568,0.36 l -20.088,0 c -1.512,0 -2.52,0.432 -2.52,1.296 0,0.648 0.504,1.008 1.152,1.224 4.104,1.152 5.904,1.224 5.904,5.328 l 0,26.28 c 0,2.66399 -0.936,4.104 -3.384,5.184 -1.584,0.72 -3.96,1.08 -3.96,2.16 0,0.72 1.584,1.152 2.376,1.224"
         style="fill:none;stroke:#808080;stroke-width:0.625;stroke-miterlimit:4;stroke-dasharray:none"
         id="path3061"
         inkscape:connector-curvature="0" />
      <path
         d="m -111.72598,161.62773 0,-28.584 c 0,-4.104 1.94401,-4.176 6.048,-5.328 0.648,-0.216 1.08,-0.576 1.08,-1.224 0,-0.864 -1.44,-1.296 -2.52,-1.296 -2.448,0 -5.4,0.36 -7.92,0.36 -2.592,0 -5.184,-0.36 -7.992,-0.36 -1.584,0 -2.592,0.432 -2.592,1.296 0,0.648 0.504,1.008 1.152,1.224 4.104,1.152 5.904,1.224 5.904,5.328 l 0,26.28 c 0,2.66399 -0.936,4.104 -3.384,5.184 -1.584,0.72 -3.96,1.08 -3.96,2.16 0,0.72 1.584,1.152 2.376,1.224 0.504,0 4.752,-0.36 8.136,-0.36 7.63199,0 21.240004,0.36 23.904001,0.36 1.223999,0 1.440001,-0.288 2.016,-1.368 0.576,-0.936 2.376,-6.76801 2.376,-8.712 0,-2.016 -0.576001,-3.384 -1.296,-3.384 -0.647999,0 -1.584,0.576 -1.944,1.368 -2.087998,4.39199 -3.024005,8.712 -8.568,8.712 l -9.648001,0 c -2.232,0 -3.168,-0.79201 -3.168,-2.88"
         style="fill:none;stroke:#808080;stroke-width:0.625;stroke-miterlimit:4;stroke-dasharray:none"
         id="path3063"
         inkscape:connector-curvature="0" />
      <path
         d="m -64.580604,125.19573 c -2.447997,0 -5.400002,0.36 -7.92,0.36 -2.591997,0 -5.184003,-0.36 -7.992,-0.36 -1.079999,0 -2.52,0.432 -2.52,1.296 0,0.648 0.504001,1.008 1.152,1.224 4.103996,1.152 5.904,1.224 5.904,5.328 l 0,26.28 c 0,2.66399 -0.936002,4.104 -3.384,5.184 -1.583998,0.72 -3.96,1.08 -3.96,2.16 0,0.72 1.584001,1.152 2.376,1.224 0.504,0 4.752003,-0.432 8.136,-0.432 3.455997,0 8.208001,0.432 8.712,0.432 0.791999,-0.072 2.304,-0.504 2.304,-1.224 0,-1.08 -2.376002,-1.44 -3.96,-2.16 -2.447997,-1.08 -3.384,-2.52001 -3.384,-5.184 l 0,-26.28 c 0,-4.104 1.872004,-4.176 5.976,-5.328 0.647999,-0.216 1.08,-0.576 1.08,-1.224 0,-0.864 -1.440001,-1.296 -2.52,-1.296"
         style="fill:none;stroke:#808080;stroke-width:0.625;stroke-miterlimit:4;stroke-dasharray:none"
         id="path3065"
         inkscape:connector-curvature="0" />
      <path
         d="m -30.895854,123.97173 c -14.183986,0 -26.064,9.79201 -26.064,23.976 0,12.81598 12.528012,20.952 24.696,20.952 4.031996,0 9.072003,-0.792 11.952,-1.8 1.799998,-0.648 2.160001,-1.15201 3.312,-3.528 0.647999,-1.368 2.88,-6.264 2.88,-6.84 0,-1.296 -0.576,-2.016 -1.152,-2.016 -0.575999,0 -1.008,0.144 -1.296,0.576 -3.815996,5.39999 -5.472007,10.44 -12.744,10.44 -11.447988,0 -19.584,-9.79201 -19.584,-20.808 0,-9.93599 7.272009,-17.712 16.56,-17.712 5.111995,0 12.024001,1.872 13.032,5.04 0.935999,3.02399 1.800001,4.536 2.88,4.536 0.791999,0 1.296,-0.792 1.296,-2.016 0,-3.96 -0.504002,-7.776 -2.16,-7.92 -1.655998,-0.144 -8.136005,-2.88 -13.608,-2.88"
         style="fill:none;stroke:#808080;stroke-width:0.625;stroke-miterlimit:4;stroke-dasharray:none"
         id="path3067"
         inkscape:connector-curvature="0" />
      <path
         d="m 7.6770211,131.38773 0,27.936 c 0,2.66399 -0.9360025,4.104 -3.384,5.184 -1.5839984,0.72 -3.96000002,1.08 -3.96000002,2.16 0,0.72 1.58400082,1.152 2.37600002,1.224 0.5039995,0 4.7520034,-0.432 8.1359999,-0.432 3.455997,0 8.208001,0.432 8.712,0.432 0.791999,-0.072 2.304,-0.504 2.304,-1.224 0,-1.08 -2.376002,-1.44 -3.96,-2.16 -2.447997,-1.08 -3.384,-2.52001 -3.384,-5.184 l 0,-27.936 c 0,-0.72 0.144001,-2.232 0.864,-2.232 l 11.16,0 c 1.007999,0 1.944001,0.936 2.592,2.016 0.791999,1.368 1.872001,3.24 2.592,3.24 0.863999,0 1.008,-0.576 1.008,-1.656 0,-0.792 -0.144,-3.24001 -0.144,-4.968 0,-1.584 0.288,-2.448 0.288,-3.096 0,-0.576 -0.432001,-1.296 -1.296,-1.296 -0.863999,0 -1.224001,0.576 -2.088,1.08 -1.295999,0.72 -2.448003,1.224 -5.04,1.224 l -25.12799992,0 c -3.95999608,0 -5.76000108,-2.16 -6.83999998,-2.16 -0.7199993,0 -1.224,0.864 -1.224,1.8 0,0.72 0.144,2.088 0.144,3.24 0,2.30399 -0.36,2.88 -0.36,4.536 0,0.648 0.3600009,1.656 1.296,1.656 1.007999,0 1.5120008,-2.016 2.304,-3.456 0.7199993,-1.296 1.2240018,-2.16 3.096,-2.16 l 8.784,0 c 0.7199993,0 1.152,0.792 1.152,2.232"
         style="fill:none;stroke:#808080;stroke-width:0.625;stroke-miterlimit:4;stroke-dasharray:none"
         id="path3069"
         inkscape:connector-curvature="0" />
      <path
         d="m 42.798396,143.98773 c 0,-7.92 5.760008,-15.984 13.68,-15.984 9.359991,0 14.328,10.22401 14.328,19.584 0,8.56799 -3.744008,17.712 -12.312,17.712 -10.00799,0 -15.696,-11.30401 -15.696,-21.312 m 16.416,-19.296 c -14.255986,0 -24.48,8.20801 -24.48,21.816 0,13.10398 9.864013,22.104 22.752,22.104 12.311988,0 21.384,-10.87202 21.384,-23.184 0,-10.51199 -9.86401,-20.736 -19.656,-20.736"
         style="fill:none;stroke:#808080;stroke-width:0.625;stroke-miterlimit:4;stroke-dasharray:none"
         id="path3071"
         inkscape:connector-curvature="0" />
      <path
         d="m 112.63052,150.03573 c -0.936,-1.368 -1.8,-2.952 -1.8,-3.6 0,-0.648 0.288,-0.576 1.224,-1.296 3.384,-2.448 5.688,-5.47201 5.688,-10.08 0,-7.272 -8.06401,-10.296 -15.336,-10.296 -6.407993,0 -9.360005,0.216 -15.695999,0.72 -1.511998,0.072 -2.52,0.432 -2.52,1.296 0,0.648 0.504001,1.008 1.152,1.224 4.103996,1.152 5.904,1.224 5.904,5.328 l 0,25.992 c 0,2.66399 -0.936002,4.104 -3.384,5.184 -1.583998,0.72 -3.96,1.08 -3.96,2.16 0,0.72 1.584001,1.152 2.376,1.224 0.504,0 4.824003,-0.432 7.92,-0.432 3.455997,0 8.207999,0.432 8.711999,0.432 0.792,-0.072 2.304,-0.504 2.304,-1.224 0,-1.08 -2.376,-1.44 -3.96,-2.16 -2.447996,-1.08 -3.383999,-2.52001 -3.383999,-5.184 l 0,-8.64 c 0,-1.44 0.504002,-1.944 2.016,-1.944 3.023999,0 5.111999,0.936 5.975999,2.376 3.744,6.26399 7.12801,10.512 11.376,14.976 2.016,2.15999 5.616,3.384 9.144,3.384 2.52,0 5.04,-0.864 5.04,-2.16 0,-0.576 -0.432,-1.152 -1.224,-1.224 -1.584,-0.144 -3.24,-0.504 -4.104,-1.152 -5.39999,-3.888 -9.936,-9.64801 -13.464,-14.904 m -11.808,-3.888 c -2.087997,0 -2.951999,-0.576 -2.951999,-1.872 l 0,-13.896 c 0,-1.368 1.584002,-2.448 3.599999,-2.448 4.824,0 9.072,3.384 9.072,8.208 0,3.74399 -1.584,6.192 -4.392,8.568 -0.648,0.72 -3.168,1.44 -5.328,1.44"
         style="fill:none;stroke:#808080;stroke-width:0.625;stroke-miterlimit:4;stroke-dasharray:none"
         id="path3073"
         inkscape:connector-curvature="0" />
      <path
         d="m 169.61065,132.32373 c 0,-2.808 0.648,-3.528 3.96,-4.608 0.648,-0.216 1.224,-0.576 1.224,-1.224 0,-0.864 -1.44001,-1.296 -2.52,-1.296 -1.08,0 -3.52801,0.36 -4.608,0.36 -1.08,0 -3.60001,-0.36 -4.68,-0.36 -1.08,0 -2.52,0.432 -2.52,1.296 0,0.648 0.576,1.08 1.224,1.296 3.02399,1.008 3.816,0.936 3.816,4.68 l 0,13.392 c 0,11.23199 -2.44801,18.72 -12.312,18.72 -8.784,0 -10.872,-5.76002 -10.872,-17.28 l 0,-14.4 c 0,-2.88 1.728,-4.176 4.824,-5.184 0.648,-0.216 1.08,-0.576 1.08,-1.224 0,-0.864 -1.44001,-1.296 -2.52,-1.296 -2.448,0 -5.68801,0.36 -8.208,0.36 -2.592,0 -2.88001,-0.36 -5.688,-0.36 -1.08,0 -2.52,0.432 -2.52,1.296 0,0.648 0.504,1.008 1.152,1.224 4.53599,1.51199 5.04,1.872 5.04,5.328 l 0,16.848 c 0,11.01599 3.31201,18.288 16.2,18.288 10.58399,0 17.928,-7.27201 17.928,-18.432 l 0,-17.424"
         style="fill:none;stroke:#808080;stroke-width:0.625;stroke-miterlimit:4;stroke-dasharray:none"
         id="path3075"
         inkscape:connector-curvature="0" />
      <path
         d="m 224.92015,158.45973 -1.224,-23.76 c -0.216,-4.104 0.576,-5.544 2.808,-6.48 2.87999,-1.224 3.456,-1.44 3.456,-2.16 0,-0.72 -0.288,-1.224 -1.152,-1.224 -2.304,0 -7.27201,0.72 -9.144,0.72 -1.872,0 -2.88,0 -3.672,1.656 l -11.304,23.472 c -1.368,2.73599 -1.656,1.58399 -2.232,0.072 l -8.424,-20.664 c -1.368,-3.24 -2.59201,-4.536 -4.536,-4.536 -3.312,0 -5.40001,-0.36 -7.992,-0.36 -0.864,0 -2.448,-0.072 -2.448,1.008 0,1.152 2.592,2.232 3.888,3.456 1.79999,1.65599 2.952,3.024 2.304,8.136 l -2.448,19.152 c -0.504,3.59999 -1.72801,6.48 -4.176,7.56 -1.656,0.72 -3.96,1.08 -3.96,2.16 0,0.72 1.584,1.152 2.376,1.224 0.504,0 3.24,-0.432 6.624,-0.432 3.45599,0 6.624,0.432 7.128,0.432 0.792,-0.072 2.304,-0.504 2.304,-1.224 0,-1.08 -2.37601,-1.44 -3.96,-2.16 -1.872,-0.864 -2.376,-4.39201 -2.232,-6.336 l 1.224,-20.088 c 0.072,-1.8 0.72,-2.808 1.8,-0.072 l 8.856,22.68 c 1.51199,3.88799 2.088,4.464 2.808,4.464 0.648,0 3.672,-6.192 3.96,-6.84 l 9.72,-22.32 c 0.504,-1.296 1.8,-1.584 1.872,-0.216 l 0.936,22.68 c 0.144,2.66399 -0.93601,4.968 -3.384,6.048 -1.584,0.72 -3.96,1.08 -3.96,2.16 0,0.72 1.584,1.152 2.376,1.224 0.504,0 4.752,-0.432 8.136,-0.432 3.45599,0 8.208,0.432 8.712,0.432 0.792,-0.072 2.304,-0.504 2.304,-1.224 0,-1.08 -2.37601,-1.44 -3.96,-2.16 -2.448,-1.08 -3.24,-3.38401 -3.384,-6.048"
         style="fill:none;stroke:#808080;stroke-width:0.625;stroke-miterlimit:4;stroke-dasharray:none"
         id="path3077"
         inkscape:connector-curvature="0" />
    </g>
  </g>
</svg>
